<svg version="1.1" viewBox="0.0 0.0 604.7244094488188 982.6771653543307" fill="none" stroke="none" stroke-linecap="square" stroke-miterlimit="10" xmlns:xlink="http://www.w3.org/1999/xlink" xmlns="http://www.w3.org/2000/svg"><clipPath id="p.0"><path d="m0 0l604.7244 0l0 982.6772l-604.7244 0l0 -982.6772z" clip-rule="nonzero"/></clipPath><g clip-path="url(#p.0)"><path fill="#000000" fill-opacity="0.0" d="m0 0l604.7244 0l0 982.6772l-604.7244 0z" fill-rule="evenodd"/><path fill="#ffffff" d="m37.795277 125.986015l0 0c0 -48.706398 39.48434 -88.190735 88.190735 -88.190735l352.75238 0l0 0c23.389618 0 45.82129 9.291496 62.36029 25.830467c16.53894 16.538975 25.830444 38.97063 25.830444 62.36027l0 730.70514c0 48.70636 -39.484314 88.190735 -88.190735 88.190735l-352.75238 0c-48.706398 0 -88.190735 -39.484375 -88.190735 -88.190735z" fill-rule="evenodd"/><path stroke="#000000" stroke-width="3.0" stroke-linejoin="round" stroke-linecap="butt" d="m37.795277 125.986015l0 0c0 -48.706398 39.48434 -88.190735 88.190735 -88.190735l352.75238 0l0 0c23.389618 0 45.82129 9.291496 62.36029 25.830467c16.53894 16.538975 25.830444 38.97063 25.830444 62.36027l0 730.70514c0 48.70636 -39.484314 88.190735 -88.190735 88.190735l-352.75238 0c-48.706398 0 -88.190735 -39.484375 -88.190735 -88.190735z" fill-rule="evenodd"/><path fill="#000000" fill-opacity="0.0" d="m37.805775 491.3386l529.13385 0" fill-rule="evenodd"/><path stroke="#000000" stroke-width="2.0" stroke-linejoin="round" stroke-linecap="butt" d="m37.805775 491.3386l529.13385 0" fill-rule="evenodd"/><path fill="#000000" fill-opacity="0.0" d="m217.32283 126.614174l170.07875 0l0 113.385826l-170.07875 0z" fill-rule="evenodd"/><path stroke="#000000" stroke-width="2.0" stroke-linejoin="round" stroke-linecap="butt" d="m217.32283 126.614174l170.07875 0l0 113.385826l-170.07875 0z" fill-rule="evenodd"/><path fill="#000000" fill-opacity="0.0" d="m217.32283 742.6772l170.07875 0l0 113.3858l-170.07875 0z" fill-rule="evenodd"/><path stroke="#000000" stroke-width="2.0" stroke-linejoin="round" stroke-linecap="butt" d="m217.32283 742.6772l170.07875 0l0 113.3858l-170.07875 0z" fill-rule="evenodd"/><path fill="#000000" fill-opacity="0.0" d="m255.1181 151.1811l94.48819 0l0 37.795273l-94.48819 0z" fill-rule="evenodd"/><path stroke="#000000" stroke-width="2.0" stroke-linejoin="round" stroke-linecap="butt" d="m255.1181 151.1811l94.48819 0l0 37.795273l-94.48819 0z" fill-rule="evenodd"/><path fill="#000000" fill-opacity="0.0" d="m255.1181 793.7008l94.48819 0l0 37.795227l-94.48819 0z" fill-rule="evenodd"/><path stroke="#000000" stroke-width="2.0" stroke-linejoin="round" stroke-linecap="butt" d="m255.1181 793.7008l94.48819 0l0 37.795227l-94.48819 0z" fill-rule="evenodd"/><path fill="#000000" d="m70.0354 149.40321l3.7772598 0l0 -3.7772675l3.5557785 0l0 3.7772675l3.7772598 0l0 3.5557861l-3.7772598 0l0 3.7772522l-3.5557785 0l0 -3.7772522l-3.7772598 0z" fill-rule="evenodd"/><path stroke="#000000" stroke-width="2.0" stroke-linejoin="round" stroke-linecap="butt" d="m70.0354 149.40321l3.7772598 0l0 -3.7772675l3.5557785 0l0 3.7772675l3.7772598 0l0 3.5557861l-3.7772598 0l0 3.7772522l-3.5557785 0l0 -3.7772522l-3.7772598 0z" fill-rule="evenodd"/><path fill="#000000" d="m523.57874 149.40321l3.7772217 0l0 -3.7772675l3.5557861 0l0 3.7772675l3.7772827 0l0 3.5557861l-3.7772827 0l0 3.7772522l-3.5557861 0l0 -3.7772522l-3.7772217 0z" fill-rule="evenodd"/><path stroke="#000000" stroke-width="2.0" stroke-linejoin="round" stroke-linecap="butt" d="m523.57874 149.40321l3.7772217 0l0 -3.7772675l3.5557861 0l0 3.7772675l3.7772827 0l0 3.5557861l-3.7772827 0l0 3.7772522l-3.5557861 0l0 -3.7772522l-3.7772217 0z" fill-rule="evenodd"/><path fill="#000000" d="m70.0354 829.7182l3.7772598 0l0 -3.7772827l3.5557785 0l0 3.7772827l3.7772598 0l0 3.555725l-3.7772598 0l0 3.7772827l-3.5557785 0l0 -3.7772827l-3.7772598 0z" fill-rule="evenodd"/><path stroke="#000000" stroke-width="2.0" stroke-linejoin="round" stroke-linecap="butt" d="m70.0354 829.7182l3.7772598 0l0 -3.7772827l3.5557785 0l0 3.7772827l3.7772598 0l0 3.555725l-3.7772598 0l0 3.7772827l-3.5557785 0l0 -3.7772827l-3.7772598 0z" fill-rule="evenodd"/><path fill="#000000" d="m523.57874 829.7182l3.7772217 0l0 -3.7772827l3.5557861 0l0 3.7772827l3.7772827 0l0 3.555725l-3.7772827 0l0 3.7772827l-3.5557861 0l0 -3.7772827l-3.7772217 0z" fill-rule="evenodd"/><path stroke="#000000" stroke-width="2.0" stroke-linejoin="round" stroke-linecap="butt" d="m523.57874 829.7182l3.7772217 0l0 -3.7772827l3.5557861 0l0 3.7772827l3.7772827 0l0 3.555725l-3.7772827 0l0 3.7772827l-3.5557861 0l0 -3.7772827l-3.7772217 0z" fill-rule="evenodd"/><path fill="#000000" d="m70.0354 489.5607l3.7772598 0l0 -3.7772522l3.5557785 0l0 3.7772522l3.7772598 0l0 3.5557861l-3.7772598 0l0 3.7772522l-3.5557785 0l0 -3.7772522l-3.7772598 0z" fill-rule="evenodd"/><path stroke="#000000" stroke-width="2.0" stroke-linejoin="round" stroke-linecap="butt" d="m70.0354 489.5607l3.7772598 0l0 -3.7772522l3.5557785 0l0 3.7772522l3.7772598 0l0 3.5557861l-3.7772598 0l0 3.7772522l-3.5557785 0l0 -3.7772522l-3.7772598 0z" fill-rule="evenodd"/><path fill="#000000" d="m523.57874 489.5607l3.7772217 0l0 -3.7772522l3.5557861 0l0 3.7772522l3.7772827 0l0 3.5557861l-3.7772827 0l0 3.7772522l-3.5557861 0l0 -3.7772522l-3.7772217 0z" fill-rule="evenodd"/><path stroke="#000000" stroke-width="2.0" stroke-linejoin="round" stroke-linecap="butt" d="m523.57874 489.5607l3.7772217 0l0 -3.7772522l3.5557861 0l0 3.7772522l3.7772827 0l0 3.5557861l-3.7772827 0l0 3.7772522l-3.5557861 0l0 -3.7772522l-3.7772217 0z" fill-rule="evenodd"/><path fill="#000000" d="m296.80707 489.5607l3.7772522 0l0 -3.7772522l3.5557861 0l0 3.7772522l3.7772522 0l0 3.5557861l-3.7772522 0l0 3.7772522l-3.5557861 0l0 -3.7772522l-3.7772522 0z" fill-rule="evenodd"/><path stroke="#000000" stroke-width="2.0" stroke-linejoin="round" stroke-linecap="butt" d="m296.80707 489.5607l3.7772522 0l0 -3.7772522l3.5557861 0l0 3.7772522l3.7772522 0l0 3.5557861l-3.7772522 0l0 3.7772522l-3.5557861 0l0 -3.7772522l-3.7772522 0z" fill-rule="evenodd"/><path fill="#434343" d="m276.22055 126.614174l52.283295 0c1.085968 0 2.1274414 0.43138885 2.8952942 1.1992722c0.7678833 0.7678833 1.1992798 1.8093567 1.1992798 2.8952942l0 20.472366c0 2.746582E-4 -2.1362305E-4 5.0354004E-4 -4.8828125E-4 5.0354004E-4l-60.471954 -5.0354004E-4l0 0c-2.746582E-4 0 -4.8828125E-4 -2.2888184E-4 -4.8828125E-4 -5.0354004E-4l4.8828125E-4 -20.471863l0 0c0 -2.2613678 1.8332214 -4.0945663 4.094574 -4.0945663z" fill-rule="evenodd"/><path stroke="#ff0000" stroke-width="3.0" stroke-linejoin="round" stroke-linecap="butt" d="m276.22055 126.614174l52.283295 0c1.085968 0 2.1274414 0.43138885 2.8952942 1.1992722c0.7678833 0.7678833 1.1992798 1.8093567 1.1992798 2.8952942l0 20.472366c0 2.746582E-4 -2.1362305E-4 5.0354004E-4 -4.8828125E-4 5.0354004E-4l-60.471954 -5.0354004E-4l0 0c-2.746582E-4 0 -4.8828125E-4 -2.2888184E-4 -4.8828125E-4 -5.0354004E-4l4.8828125E-4 -20.471863l0 0c0 -2.2613678 1.8332214 -4.0945663 4.094574 -4.0945663z" fill-rule="evenodd"/><path fill="#434343" d="m276.22055 856.063l52.283295 0c1.085968 0 2.1274414 -0.43139648 2.8952942 -1.1992798c0.7678833 -0.7678833 1.1992798 -1.8093262 1.1992798 -2.8952637l0 -20.472412c0 -2.4414062E-4 -2.1362305E-4 -4.8828125E-4 -4.8828125E-4 -4.8828125E-4l-60.471954 4.8828125E-4l0 0c-2.746582E-4 0 -4.8828125E-4 2.4414062E-4 -4.8828125E-4 5.493164E-4l4.8828125E-4 20.471863l0 0c0 2.2613525 1.8332214 4.0945435 4.094574 4.0945435z" fill-rule="evenodd"/><path stroke="#ff0000" stroke-width="3.0" stroke-linejoin="round" stroke-linecap="butt" d="m276.22055 856.063l52.283295 0c1.085968 0 2.1274414 -0.43139648 2.8952942 -1.1992798c0.7678833 -0.7678833 1.1992798 -1.8093262 1.1992798 -2.8952637l0 -20.472412c0 -2.4414062E-4 -2.1362305E-4 -4.8828125E-4 -4.8828125E-4 -4.8828125E-4l-60.471954 4.8828125E-4l0 0c-2.746582E-4 0 -4.8828125E-4 2.4414062E-4 -4.8828125E-4 5.493164E-4l4.8828125E-4 20.471863l0 0c0 2.2613525 1.8332214 4.0945435 4.094574 4.0945435z" fill-rule="evenodd"/></g></svg>